# xmcd CD database file generated by MAGIX-FreeDB- v3.0beta1
#
# Track frame offsets:
#	150
#	21764
#	36578
#	54525
#	72202
#	89611
#	111066
#	125961
#	147529
#	168235
#	196055
#
# Disc length: 3798
#
# Revision: 1
# Processed by: cddbd v1.5.2PL0 Copyright (c) Steve Scherf et al.
# Submitted via: MAGIX-FreeDB- v3.0beta1
#
DISCID=a30ed40b
DTITLE=Various Artist - The Ultimate Mix
DYEAR=1996
DGENRE=Funk
TTITLE0=Kurtis Blow, Mele Mel, Africa Bambaataa - We Funk (Therefore We Are)
TTITLE1=Mele Mel - The Party Is A Bomb
TTITLE2=The Pioneers - Ultimate Mix (We Funk This Party Out)
TTITLE3=Kurtis Blow feat. Dawn D'Patterson - Rendezvous
TTITLE4=Craig Derry's Vocal Academy - Dancing In The Funkshine
TTITLE5=Mele Mel and Grandmaster Flash feat. Scorpio - This Is A Raid
TTITLE6=Sharissa Dawes and ILL Bread - Bring Out The Freak
TTITLE7=ILL Bread and Andy Snitzer - One Two
TTITLE8=Grandmaster Flash feat. yard style rap by Papa G. - Mooove Your Body
TTITLE9=The Pioneers - Ultimate Mix (Mix Your Own)
TTITLE10=Data
EXTD=
EXTT0=
EXTT1=
EXTT2=
EXTT3=
EXTT4=
EXTT5=
EXTT6=
EXTT7=
EXTT8=
EXTT9=
EXTT10=
PLAYORDER=
